<mxfile host="app.diagrams.net" modified="2024-07-13T08:03:50.875Z" agent="Mozilla/5.0 (Windows NT 10.0; Win64; x64) AppleWebKit/537.36 (KHTML, like Gecko) Chrome/126.0.0.0 Safari/537.36" etag="_OQdtpy0unmfhWFLW-kH" version="24.6.5" type="device">
  <diagram id="C5RBs43oDa-KdzZeNtuy" name="Page-1">
    <mxGraphModel dx="1290" dy="569" grid="1" gridSize="10" guides="1" tooltips="1" connect="1" arrows="1" fold="1" page="1" pageScale="1" pageWidth="827" pageHeight="1169" math="0" shadow="0">
      <root>
        <mxCell id="WIyWlLk6GJQsqaUBKTNV-0" />
        <mxCell id="WIyWlLk6GJQsqaUBKTNV-1" parent="WIyWlLk6GJQsqaUBKTNV-0" />
        <mxCell id="zkfFHV4jXpPFQw0GAbJ--0" value="&lt;&lt;UI&gt;&gt;&#xa;StudentManagementUI             " style="swimlane;fontStyle=3;align=center;verticalAlign=top;childLayout=stackLayout;horizontal=1;startSize=50;horizontalStack=0;resizeParent=1;resizeLast=0;collapsible=1;marginBottom=0;rounded=0;shadow=0;strokeWidth=1;" parent="WIyWlLk6GJQsqaUBKTNV-1" vertex="1">
          <mxGeometry x="100" y="20" width="410" height="394" as="geometry">
            <mxRectangle x="230" y="140" width="160" height="26" as="alternateBounds" />
          </mxGeometry>
        </mxCell>
        <mxCell id="zkfFHV4jXpPFQw0GAbJ--3" value="- studentService: StudentService&#xa; - tableModel: DefaultTableModel&#xa; - studentTable: JTable&#xa;- idLabel, nameLabel, majorLabel, javaLabel, htmlLabel, cssLabel: JLabel &#xa; - idField, nameField, majorFiled, javaField, htmlField, cssField: JTextField&#xa; - addButton, removeButton, editButton, findButton: JButton &#xa;- searchLabel : JLabel &#xa;- searchField: JTextField &#xa;- searchButton: JButton" style="text;align=left;verticalAlign=top;spacingLeft=4;spacingRight=4;overflow=hidden;rotatable=0;points=[[0,0.5],[1,0.5]];portConstraint=eastwest;rounded=0;shadow=0;html=0;" parent="zkfFHV4jXpPFQw0GAbJ--0" vertex="1">
          <mxGeometry y="50" width="410" height="144" as="geometry" />
        </mxCell>
        <mxCell id="zkfFHV4jXpPFQw0GAbJ--4" value="" style="line;html=1;strokeWidth=1;align=left;verticalAlign=middle;spacingTop=-1;spacingLeft=3;spacingRight=3;rotatable=0;labelPosition=right;points=[];portConstraint=eastwest;" parent="zkfFHV4jXpPFQw0GAbJ--0" vertex="1">
          <mxGeometry y="194" width="410" height="8" as="geometry" />
        </mxCell>
        <mxCell id="zkfFHV4jXpPFQw0GAbJ--5" value=" - addStudent(): void &#xa; - removeStudent(): void &#xa; - editStudent(): void &#xa; - findStudent(): void &#xa; - showSelectedStudentInfo(): void&#xa; - clearInputField(): void&#xa; - searchStudentByName(): void&#xa; - refreshStudentTable(): void &#xa; - populateStudentTable( students: List&lt;Student&gt;): void&#xa; - main(String[]): void  &#xa;- populateInputFiled(student: Student): void&#xa;+ StudentManagementUI(studentService : StudentService)" style="text;align=left;verticalAlign=top;spacingLeft=4;spacingRight=4;overflow=hidden;rotatable=0;points=[[0,0.5],[1,0.5]];portConstraint=eastwest;" parent="zkfFHV4jXpPFQw0GAbJ--0" vertex="1">
          <mxGeometry y="202" width="410" height="182" as="geometry" />
        </mxCell>
        <mxCell id="zkfFHV4jXpPFQw0GAbJ--6" value="&lt;&lt;Service Implementation&gt;&gt;&#xa;StudentServiceImp" style="swimlane;fontStyle=0;align=center;verticalAlign=top;childLayout=stackLayout;horizontal=1;startSize=50;horizontalStack=0;resizeParent=1;resizeLast=0;collapsible=1;marginBottom=0;rounded=0;shadow=0;strokeWidth=1;" parent="WIyWlLk6GJQsqaUBKTNV-1" vertex="1">
          <mxGeometry x="100" y="500" width="420" height="230" as="geometry">
            <mxRectangle x="130" y="380" width="160" height="26" as="alternateBounds" />
          </mxGeometry>
        </mxCell>
        <mxCell id="zkfFHV4jXpPFQw0GAbJ--7" value=" - persistenceService: StudentPersistenceService" style="text;align=left;verticalAlign=top;spacingLeft=4;spacingRight=4;overflow=hidden;rotatable=0;points=[[0,0.5],[1,0.5]];portConstraint=eastwest;" parent="zkfFHV4jXpPFQw0GAbJ--6" vertex="1">
          <mxGeometry y="50" width="420" height="30" as="geometry" />
        </mxCell>
        <mxCell id="zkfFHV4jXpPFQw0GAbJ--9" value="" style="line;html=1;strokeWidth=1;align=left;verticalAlign=middle;spacingTop=-1;spacingLeft=3;spacingRight=3;rotatable=0;labelPosition=right;points=[];portConstraint=eastwest;" parent="zkfFHV4jXpPFQw0GAbJ--6" vertex="1">
          <mxGeometry y="80" width="420" height="8" as="geometry" />
        </mxCell>
        <mxCell id="zkfFHV4jXpPFQw0GAbJ--11" value="+ StudentServiceImpl(persistenceService : StudentPersistenceService ) &#xa;+ addStudent(student: Student): void&#xa;+ removeStudent(id: int): void &#xa;+ editStudent(student: Student): void &#xa;+ findStudent(id: int): Student &#xa;+ getAllStudents(): List&lt;Student&gt;&#xa;+ searchStudentsByName(name: String): List&lt;Student&gt;&#xa;+ searchFullTextStudentsByName(query: String): List&lt;Student&gt;       &#xa;- containsIgnoreCase(str String, query String): boolean" style="text;align=left;verticalAlign=top;spacingLeft=4;spacingRight=4;overflow=hidden;rotatable=0;points=[[0,0.5],[1,0.5]];portConstraint=eastwest;" parent="zkfFHV4jXpPFQw0GAbJ--6" vertex="1">
          <mxGeometry y="88" width="420" height="142" as="geometry" />
        </mxCell>
        <mxCell id="zkfFHV4jXpPFQw0GAbJ--17" value="&lt;&lt;Service&gt;&gt;&#xa;StudentService" style="swimlane;fontStyle=1;align=center;verticalAlign=top;childLayout=stackLayout;horizontal=1;startSize=50;horizontalStack=0;resizeParent=1;resizeLast=0;collapsible=1;marginBottom=0;rounded=0;shadow=0;strokeWidth=1;" parent="WIyWlLk6GJQsqaUBKTNV-1" vertex="1">
          <mxGeometry x="710" y="30" width="340" height="200" as="geometry">
            <mxRectangle x="550" y="140" width="160" height="26" as="alternateBounds" />
          </mxGeometry>
        </mxCell>
        <mxCell id="zkfFHV4jXpPFQw0GAbJ--18" value=" + addStudent(Student): void&#xa; + removeStudent(int): void &#xa; + editStudent(Student): void&#xa; " style="text;align=left;verticalAlign=top;spacingLeft=4;spacingRight=4;overflow=hidden;rotatable=0;points=[[0,0.5],[1,0.5]];portConstraint=eastwest;" parent="zkfFHV4jXpPFQw0GAbJ--17" vertex="1">
          <mxGeometry y="50" width="340" height="60" as="geometry" />
        </mxCell>
        <mxCell id="zkfFHV4jXpPFQw0GAbJ--23" value="" style="line;html=1;strokeWidth=1;align=left;verticalAlign=middle;spacingTop=-1;spacingLeft=3;spacingRight=3;rotatable=0;labelPosition=right;points=[];portConstraint=eastwest;" parent="zkfFHV4jXpPFQw0GAbJ--17" vertex="1">
          <mxGeometry y="110" width="340" height="8" as="geometry" />
        </mxCell>
        <mxCell id="zkfFHV4jXpPFQw0GAbJ--24" value=" findStudent( id: int ): Student &#xa; getAllStudents(): List&lt;Student&gt; &#xa; searchStudentsByName(name: String): List&lt;Student&gt;&#xa; searchFullTextStudentsByName(query: String): List&lt;Student&gt;" style="text;align=left;verticalAlign=top;spacingLeft=4;spacingRight=4;overflow=hidden;rotatable=0;points=[[0,0.5],[1,0.5]];portConstraint=eastwest;" parent="zkfFHV4jXpPFQw0GAbJ--17" vertex="1">
          <mxGeometry y="118" width="340" height="72" as="geometry" />
        </mxCell>
        <mxCell id="vXlUsGkwcEJ-1bUedrZQ-2" value="&lt;&lt;Data Access&gt;&gt;&#xa;StudentPersistenceService   " style="swimlane;fontStyle=0;align=center;verticalAlign=top;childLayout=stackLayout;horizontal=1;startSize=50;horizontalStack=0;resizeParent=1;resizeLast=0;collapsible=1;marginBottom=0;rounded=0;shadow=0;strokeWidth=1;" parent="WIyWlLk6GJQsqaUBKTNV-1" vertex="1">
          <mxGeometry x="700" y="500" width="420" height="148" as="geometry">
            <mxRectangle x="130" y="380" width="160" height="26" as="alternateBounds" />
          </mxGeometry>
        </mxCell>
        <mxCell id="vXlUsGkwcEJ-1bUedrZQ-3" value=" + saveStudent(student: Student): void&#xa;+ deleteStudent(id: int): void &#xa;+ updateStudent(student: Student): void&#xa;+ getStudentById(id: int): Student &#xa;+ getAllStudents(): List&lt;Student&gt;   " style="text;align=left;verticalAlign=top;spacingLeft=4;spacingRight=4;overflow=hidden;rotatable=0;points=[[0,0.5],[1,0.5]];portConstraint=eastwest;" parent="vXlUsGkwcEJ-1bUedrZQ-2" vertex="1">
          <mxGeometry y="50" width="420" height="90" as="geometry" />
        </mxCell>
        <mxCell id="vXlUsGkwcEJ-1bUedrZQ-7" value="&lt;&lt;Data Access Implementation&gt;&gt; &#xa;StudentPersistenceServiceImpl  " style="swimlane;fontStyle=0;align=center;verticalAlign=top;childLayout=stackLayout;horizontal=1;startSize=50;horizontalStack=0;resizeParent=1;resizeLast=0;collapsible=1;marginBottom=0;rounded=0;shadow=0;strokeWidth=1;" parent="WIyWlLk6GJQsqaUBKTNV-1" vertex="1">
          <mxGeometry x="1210" y="460" width="420" height="210" as="geometry">
            <mxRectangle x="130" y="380" width="160" height="26" as="alternateBounds" />
          </mxGeometry>
        </mxCell>
        <mxCell id="vXlUsGkwcEJ-1bUedrZQ-8" value=" - filePath: String  " style="text;align=left;verticalAlign=top;spacingLeft=4;spacingRight=4;overflow=hidden;rotatable=0;points=[[0,0.5],[1,0.5]];portConstraint=eastwest;" parent="vXlUsGkwcEJ-1bUedrZQ-7" vertex="1">
          <mxGeometry y="50" width="420" height="30" as="geometry" />
        </mxCell>
        <mxCell id="vXlUsGkwcEJ-1bUedrZQ-9" value="" style="line;html=1;strokeWidth=1;align=left;verticalAlign=middle;spacingTop=-1;spacingLeft=3;spacingRight=3;rotatable=0;labelPosition=right;points=[];portConstraint=eastwest;" parent="vXlUsGkwcEJ-1bUedrZQ-7" vertex="1">
          <mxGeometry y="80" width="420" height="8" as="geometry" />
        </mxCell>
        <mxCell id="vXlUsGkwcEJ-1bUedrZQ-10" value="+ StudentPersistenceServiceImpl( filePath: String)&#xa;+ saveStudent(Student): void &#xa;+ deleteStudent( id: int ): void&#xa;+ updateStudent(student: Student): void&#xa;+ getStudentById(id: int): Student&#xa;+ getAllStudents(): List&lt;Student&gt;&#xa;- saveStudentsToFile(students: List&lt;Student&gt;): void&#xa;" style="text;align=left;verticalAlign=top;spacingLeft=4;spacingRight=4;overflow=hidden;rotatable=0;points=[[0,0.5],[1,0.5]];portConstraint=eastwest;" parent="vXlUsGkwcEJ-1bUedrZQ-7" vertex="1">
          <mxGeometry y="88" width="420" height="122" as="geometry" />
        </mxCell>
        <mxCell id="vXlUsGkwcEJ-1bUedrZQ-11" value=" &lt;&lt;Model&gt;&gt; &#xa; Student  " style="swimlane;fontStyle=0;align=center;verticalAlign=top;childLayout=stackLayout;horizontal=1;startSize=50;horizontalStack=0;resizeParent=1;resizeLast=0;collapsible=1;marginBottom=0;rounded=0;shadow=0;strokeWidth=1;" parent="WIyWlLk6GJQsqaUBKTNV-1" vertex="1">
          <mxGeometry x="1150" y="30" width="480" height="290" as="geometry">
            <mxRectangle x="130" y="380" width="160" height="26" as="alternateBounds" />
          </mxGeometry>
        </mxCell>
        <mxCell id="vXlUsGkwcEJ-1bUedrZQ-12" value=" - id: int&#xa;- name: String&#xa;- major: String&#xa;- javaMark: int&#xa;- htmlMark: int&#xa;- cssMark: int   " style="text;align=left;verticalAlign=top;spacingLeft=4;spacingRight=4;overflow=hidden;rotatable=0;points=[[0,0.5],[1,0.5]];portConstraint=eastwest;" parent="vXlUsGkwcEJ-1bUedrZQ-11" vertex="1">
          <mxGeometry y="50" width="480" height="100" as="geometry" />
        </mxCell>
        <mxCell id="vXlUsGkwcEJ-1bUedrZQ-13" value="" style="line;html=1;strokeWidth=1;align=left;verticalAlign=middle;spacingTop=-1;spacingLeft=3;spacingRight=3;rotatable=0;labelPosition=right;points=[];portConstraint=eastwest;" parent="vXlUsGkwcEJ-1bUedrZQ-11" vertex="1">
          <mxGeometry y="150" width="480" height="8" as="geometry" />
        </mxCell>
        <mxCell id="vXlUsGkwcEJ-1bUedrZQ-14" value="+ Student(id: int, name: String, major: String, javaMark: int, htmlMarl int, cssMark int)&#xa;+ getId(): int &#xa;+ getName(): String&#xa;+ getMajor(): String&#xa;+ getJavaMark(): int&#xa;+ getHtmlMark(): int&#xa;+ getCssMark(): int     &#xa;+ computeAverageMark() : double&#xa;" style="text;align=left;verticalAlign=top;spacingLeft=4;spacingRight=4;overflow=hidden;rotatable=0;points=[[0,0.5],[1,0.5]];portConstraint=eastwest;" parent="vXlUsGkwcEJ-1bUedrZQ-11" vertex="1">
          <mxGeometry y="158" width="480" height="122" as="geometry" />
        </mxCell>
        <mxCell id="vXlUsGkwcEJ-1bUedrZQ-15" value="" style="endArrow=open;endFill=1;endSize=12;html=1;rounded=0;entryX=0.003;entryY=0.817;entryDx=0;entryDy=0;entryPerimeter=0;" parent="WIyWlLk6GJQsqaUBKTNV-1" target="zkfFHV4jXpPFQw0GAbJ--18" edge="1">
          <mxGeometry width="160" relative="1" as="geometry">
            <mxPoint x="510" y="129.38" as="sourcePoint" />
            <mxPoint x="670" y="129.38" as="targetPoint" />
          </mxGeometry>
        </mxCell>
        <mxCell id="vXlUsGkwcEJ-1bUedrZQ-16" value="" style="endArrow=open;endFill=1;endSize=12;html=1;rounded=0;" parent="WIyWlLk6GJQsqaUBKTNV-1" edge="1">
          <mxGeometry width="160" relative="1" as="geometry">
            <mxPoint x="520" y="614.76" as="sourcePoint" />
            <mxPoint x="700" y="616" as="targetPoint" />
          </mxGeometry>
        </mxCell>
        <mxCell id="vXlUsGkwcEJ-1bUedrZQ-18" value="" style="endArrow=block;dashed=1;endFill=0;endSize=12;html=1;rounded=0;entryX=1;entryY=0.5;entryDx=0;entryDy=0;" parent="WIyWlLk6GJQsqaUBKTNV-1" target="zkfFHV4jXpPFQw0GAbJ--7" edge="1">
          <mxGeometry width="160" relative="1" as="geometry">
            <mxPoint x="760" y="230" as="sourcePoint" />
            <mxPoint x="630" y="490" as="targetPoint" />
            <Array as="points">
              <mxPoint x="760" y="400" />
              <mxPoint x="610" y="400" />
              <mxPoint x="610" y="565" />
            </Array>
          </mxGeometry>
        </mxCell>
        <mxCell id="vXlUsGkwcEJ-1bUedrZQ-19" value="" style="endArrow=block;dashed=1;endFill=0;endSize=12;html=1;rounded=0;" parent="WIyWlLk6GJQsqaUBKTNV-1" edge="1">
          <mxGeometry width="160" relative="1" as="geometry">
            <mxPoint x="820" y="230" as="sourcePoint" />
            <mxPoint x="820" y="500" as="targetPoint" />
          </mxGeometry>
        </mxCell>
        <mxCell id="vXlUsGkwcEJ-1bUedrZQ-20" value="Use" style="endArrow=open;endSize=12;dashed=1;html=1;rounded=0;exitX=1.015;exitY=0.286;exitDx=0;exitDy=0;exitPerimeter=0;entryX=0.004;entryY=0.689;entryDx=0;entryDy=0;entryPerimeter=0;" parent="WIyWlLk6GJQsqaUBKTNV-1" source="zkfFHV4jXpPFQw0GAbJ--5" target="vXlUsGkwcEJ-1bUedrZQ-14" edge="1">
          <mxGeometry width="160" relative="1" as="geometry">
            <mxPoint x="810" y="390" as="sourcePoint" />
            <mxPoint x="970" y="390" as="targetPoint" />
          </mxGeometry>
        </mxCell>
        <mxCell id="vXlUsGkwcEJ-1bUedrZQ-21" value="Use" style="endArrow=open;endSize=12;dashed=1;html=1;rounded=0;exitX=1.013;exitY=0.833;exitDx=0;exitDy=0;exitPerimeter=0;entryX=0;entryY=0.5;entryDx=0;entryDy=0;" parent="WIyWlLk6GJQsqaUBKTNV-1" source="zkfFHV4jXpPFQw0GAbJ--18" target="vXlUsGkwcEJ-1bUedrZQ-12" edge="1">
          <mxGeometry width="160" relative="1" as="geometry">
            <mxPoint x="526" y="284" as="sourcePoint" />
            <mxPoint x="1162" y="282" as="targetPoint" />
          </mxGeometry>
        </mxCell>
        <mxCell id="vXlUsGkwcEJ-1bUedrZQ-22" value="Use" style="endArrow=open;endSize=12;dashed=1;html=1;rounded=0;exitX=0.5;exitY=0;exitDx=0;exitDy=0;entryX=0.556;entryY=1.041;entryDx=0;entryDy=0;entryPerimeter=0;" parent="WIyWlLk6GJQsqaUBKTNV-1" source="vXlUsGkwcEJ-1bUedrZQ-7" target="vXlUsGkwcEJ-1bUedrZQ-14" edge="1">
          <mxGeometry width="160" relative="1" as="geometry">
            <mxPoint x="526" y="284" as="sourcePoint" />
            <mxPoint x="1162" y="282" as="targetPoint" />
          </mxGeometry>
        </mxCell>
        <mxCell id="vXlUsGkwcEJ-1bUedrZQ-23" value="Use" style="endArrow=open;endSize=12;dashed=1;html=1;rounded=0;exitX=0.5;exitY=0;exitDx=0;exitDy=0;" parent="WIyWlLk6GJQsqaUBKTNV-1" edge="1">
          <mxGeometry width="160" relative="1" as="geometry">
            <mxPoint x="963" y="500" as="sourcePoint" />
            <mxPoint x="1200" y="320" as="targetPoint" />
            <Array as="points">
              <mxPoint x="963" y="400" />
              <mxPoint x="1200" y="400" />
            </Array>
          </mxGeometry>
        </mxCell>
        <mxCell id="vXlUsGkwcEJ-1bUedrZQ-24" value="Use" style="endArrow=open;endSize=12;dashed=1;html=1;rounded=0;exitX=1.009;exitY=0.14;exitDx=0;exitDy=0;exitPerimeter=0;" parent="WIyWlLk6GJQsqaUBKTNV-1" source="zkfFHV4jXpPFQw0GAbJ--6" edge="1">
          <mxGeometry width="160" relative="1" as="geometry">
            <mxPoint x="570" y="540" as="sourcePoint" />
            <mxPoint x="1170" y="320" as="targetPoint" />
            <Array as="points">
              <mxPoint x="570" y="532" />
              <mxPoint x="570" y="420" />
              <mxPoint x="1170" y="420" />
            </Array>
          </mxGeometry>
        </mxCell>
      </root>
    </mxGraphModel>
  </diagram>
</mxfile>
